<svg xmlns="http://www.w3.org/2000/svg" version="1.1" width="225" height="225" viewBox="0 0 225 225"><defs><clipPath id="clip-1"><rect x="0" y="25.000000000000007" width="200" height="200"/></clipPath></defs><path fill="none" stroke="#000000" d="M -3.45,202.029 C -3.1,199.929 0.75,196.779 1.8,196.429 C 0.75,196.079 -3.1,192.929 -3.45,190.829" transform="rotate(180 1.8000002724783783 196.42857142857144)" style="stroke-width: 2px;opacity: 1;stroke-linejoin: round;stroke-linecap: round" stroke-width="2" opacity="1" stroke-linejoin="round" stroke-linecap="round"/><path fill="none" stroke="#000000" d="M 28.5714,196.429 S 28.5714,196.429 1.05,196.429" style="stroke-width: 2px;opacity: 1" stroke-width="2" opacity="1"/><path fill="none" stroke="#000000" d="M 194.45,202.029 C 194.8,199.929 198.65,196.779 199.7,196.429 C 198.65,196.079 194.8,192.929 194.45,190.829" transform="" style="stroke-width: 2px;opacity: 1;stroke-linejoin: round;stroke-linecap: round" stroke-width="2" opacity="1" stroke-linejoin="round" stroke-linecap="round"/><path fill="none" stroke="#000000" d="M 28.5714,196.429 S 28.5714,196.429 198.95,196.429" style="stroke-width: 2px;opacity: 1" stroke-width="2" opacity="1"/><path fill="none" stroke="#000000" d="M 24.0714,229.55 C 24.4214,227.45 28.2714,224.3 29.3214,223.95 C 28.2714,223.6 24.4214,220.45 24.0714,218.35" transform="rotate(90 29.321428571428573 223.949997820173)" style="stroke-width: 2px;opacity: 1;stroke-linejoin: round;stroke-linecap: round" stroke-width="2" opacity="1" stroke-linejoin="round" stroke-linecap="round"/><path fill="none" stroke="#000000" d="M 28.5714,196.429 S 28.5714,196.429 28.5714,223.95" style="stroke-width: 2px;opacity: 1" stroke-width="2" opacity="1"/><path fill="none" stroke="#000000" d="M 24.0714,31.65 C 24.4214,29.55 28.2714,26.4 29.3214,26.05 C 28.2714,25.7 24.4214,22.55 24.0714,20.45" transform="rotate(-90 29.321428571428573 26.04999782017302)" style="stroke-width: 2px;opacity: 1;stroke-linejoin: round;stroke-linecap: round" stroke-width="2" opacity="1" stroke-linejoin="round" stroke-linecap="round"/><path fill="none" stroke="#000000" d="M 28.5714,196.429 S 28.5714,196.429 28.5714,26.05" style="stroke-width: 2px;opacity: 1" stroke-width="2" opacity="1"/><path fill="#aa87ff" stroke="#aa87ff" d="M 57.1429,196.429 L 57.1429,139.286 L 85.7143,139.286 L 85.7143,196.429 Z" style="stroke-width: 2px;opacity: 0.3" stroke-width="2" clip-path="url(#clip-1)" opacity="0.3"/><path fill="none" stroke="#aa87ff" d="M 57.1429,196.429 L 57.1429,139.286 L 85.7143,139.286 L 85.7143,196.429 Z" style="stroke-width: 1px;opacity: 1" stroke-width="1" clip-path="url(#clip-1)" opacity="1"/><path fill="#aa87ff" stroke="#aa87ff" d="M 85.7143,196.429 L 85.7143,125 L 114.286,125 L 114.286,196.429 Z" style="stroke-width: 1px;opacity: 0.3" stroke-width="1" clip-path="url(#clip-1)" opacity="0.3"/><path fill="none" stroke="#aa87ff" d="M 85.7143,196.429 L 85.7143,125 L 114.286,125 L 114.286,196.429 Z" style="stroke-width: 1px;opacity: 1" stroke-width="1" clip-path="url(#clip-1)" opacity="1"/><path fill="#aa87ff" stroke="#aa87ff" d="M 114.286,196.429 L 114.286,101.19 L 142.857,101.19 L 142.857,196.429 Z" style="stroke-width: 1px;opacity: 0.3" stroke-width="1" clip-path="url(#clip-1)" opacity="0.3"/><path fill="none" stroke="#aa87ff" d="M 114.286,196.429 L 114.286,101.19 L 142.857,101.19 L 142.857,196.429 Z" style="stroke-width: 1px;opacity: 1" stroke-width="1" clip-path="url(#clip-1)" opacity="1"/><path fill="#aa87ff" stroke="#aa87ff" d="M 142.857,196.429 L 142.857,53.5714 L 171.429,53.5714 L 171.429,196.429 Z" style="stroke-width: 1px;opacity: 0.3" stroke-width="1" clip-path="url(#clip-1)" opacity="0.3"/><path fill="none" stroke="#aa87ff" d="M 142.857,196.429 L 142.857,53.5714 L 171.429,53.5714 L 171.429,196.429 Z" style="stroke-width: 1px;opacity: 1" stroke-width="1" clip-path="url(#clip-1)" opacity="1"/><path fill="none" stroke="#11accd" d="M 0,160.714 L 0.5,160.636 L 1,160.557 L 1.5,160.478 L 2,160.399 L 2.5,160.319 L 3,160.239 L 3.5,160.159 L 4,160.078 L 4.5,159.997 L 5,159.916 L 5.5,159.834 L 6,159.752 L 6.5,159.669 L 7,159.586 L 7.5,159.503 L 8,159.419 L 8.5,159.335 L 9,159.25 L 9.5,159.166 L 10,159.08 L 10.5,158.995 L 11,158.909 L 11.5,158.822 L 12,158.735 L 12.5,158.648 L 13,158.561 L 13.5,158.473 L 14,158.384 L 14.5,158.295 L 15,158.206 L 15.5,158.116 L 16,158.026 L 16.5,157.936 L 17,157.845 L 17.5,157.753 L 18,157.661 L 18.5,157.569 L 19,157.476 L 19.5,157.383 L 20,157.29 L 20.5,157.196 L 21,157.101 L 21.5,157.006 L 22,156.911 L 22.5,156.815 L 23,156.718 L 23.5,156.622 L 24,156.524 L 24.5,156.427 L 25,156.328 L 25.5,156.23 L 26,156.13 L 26.5,156.031 L 27,155.93 L 27.5,155.83 L 28,155.729 L 28.5,155.627 L 29,155.525 L 29.5,155.422 L 30,155.319 L 30.5,155.215 L 31,155.111 L 31.5,155.006 L 32,154.9 L 32.5,154.794 L 33,154.688 L 33.5,154.581 L 34,154.473 L 34.5,154.365 L 35,154.257 L 35.5,154.148 L 36,154.038 L 36.5,153.927 L 37,153.816 L 37.5,153.705 L 38,153.593 L 38.5,153.48 L 39,153.367 L 39.5,153.253 L 40,153.139 L 40.5,153.023 L 41,152.908 L 41.5,152.791 L 42,152.674 L 42.5,152.557 L 43,152.439 L 43.5,152.32 L 44,152.2 L 44.5,152.08 L 45,151.959 L 45.5,151.838 L 46,151.716 L 46.5,151.593 L 47,151.47 L 47.5,151.345 L 48,151.221 L 48.5,151.095 L 49,150.969 L 49.5,150.842 L 50,150.714 L 50.5,150.586 L 51,150.457 L 51.5,150.327 L 52,150.196 L 52.5,150.065 L 53,149.933 L 53.5,149.8 L 54,149.667 L 54.5,149.533 L 55,149.397 L 55.5,149.262 L 56,149.125 L 56.5,148.987 L 57,148.849 L 57.5,148.71 L 58,148.57 L 58.5,148.43 L 59,148.288 L 59.5,148.146 L 60,148.002 L 60.5,147.858 L 61,147.713 L 61.5,147.568 L 62,147.421 L 62.5,147.273 L 63,147.125 L 63.5,146.976 L 64,146.825 L 64.5,146.674 L 65,146.522 L 65.5,146.369 L 66,146.215 L 66.5,146.06 L 67,145.904 L 67.5,145.748 L 68,145.59 L 68.5,145.431 L 69,145.271 L 69.5,145.11 L 70,144.949 L 70.5,144.786 L 71,144.622 L 71.5,144.457 L 72,144.291 L 72.5,144.124 L 73,143.956 L 73.5,143.787 L 74,143.616 L 74.5,143.445 L 75,143.272 L 75.5,143.099 L 76,142.924 L 76.5,142.748 L 77,142.571 L 77.5,142.393 L 78,142.213 L 78.5,142.033 L 79,141.851 L 79.5,141.668 L 80,141.484 L 80.5,141.298 L 81,141.111 L 81.5,140.923 L 82,140.734 L 82.5,140.543 L 83,140.351 L 83.5,140.158 L 84,139.963 L 84.5,139.767 L 85,139.57 L 85.5,139.371 L 86,139.171 L 86.5,138.97 L 87,138.767 L 87.5,138.562 L 88,138.357 L 88.5,138.149 L 89,137.94 L 89.5,137.73 L 90,137.518 L 90.5,137.305 L 91,137.09 L 91.5,136.874 L 92,136.656 L 92.5,136.436 L 93,136.215 L 93.5,135.992 L 94,135.767 L 94.5,135.541 L 95,135.313 L 95.5,135.084 L 96,134.852 L 96.5,134.619 L 97,134.384 L 97.5,134.148 L 98,133.909 L 98.5,133.669 L 99,133.427 L 99.5,133.182 L 100,132.937 L 100.5,132.689 L 101,132.439 L 101.5,132.187 L 102,131.933 L 102.5,131.677 L 103,131.42 L 103.5,131.16 L 104,130.898 L 104.5,130.634 L 105,130.367 L 105.5,130.099 L 106,129.829 L 106.5,129.556 L 107,129.281 L 107.5,129.003 L 108,128.724 L 108.5,128.442 L 109,128.158 L 109.5,127.871 L 110,127.582 L 110.5,127.29 L 111,126.996 L 111.5,126.7 L 112,126.401 L 112.5,126.099 L 113,125.795 L 113.5,125.488 L 114,125.178 L 114.5,124.866 L 115,124.551 L 115.5,124.233 L 116,123.912 L 116.5,123.589 L 117,123.262 L 117.5,122.933 L 118,122.601 L 118.5,122.265 L 119,121.927 L 119.5,121.585 L 120,121.241 L 120.5,120.893 L 121,120.542 L 121.5,120.187 L 122,119.83 L 122.5,119.468 L 123,119.104 L 123.5,118.736 L 124,118.365 L 124.5,117.99 L 125,117.611 L 125.5,117.228 L 126,116.842 L 126.5,116.453 L 127,116.059 L 127.5,115.661 L 128,115.26 L 128.5,114.854 L 129,114.445 L 129.5,114.031 L 130,113.613 L 130.5,113.191 L 131,112.764 L 131.5,112.333 L 132,111.898 L 132.5,111.458 L 133,111.013 L 133.5,110.564 L 134,110.11 L 134.5,109.651 L 135,109.188 L 135.5,108.719 L 136,108.245 L 136.5,107.766 L 137,107.282 L 137.5,106.793 L 138,106.298 L 138.5,105.798 L 139,105.292 L 139.5,104.78 L 140,104.263 L 140.5,103.739 L 141,103.21 L 141.5,102.675 L 142,102.133 L 142.5,101.586 L 143,101.031 L 143.5,100.471 L 144,99.9035 L 144.5,99.3294 L 145,98.7485 L 145.5,98.1605 L 146,97.5655 L 146.5,96.9632 L 147,96.3535 L 147.5,95.7363 L 148,95.1114 L 148.5,94.4788 L 149,93.8382 L 149.5,93.1894 L 150,92.5325 L 150.5,91.8671 L 151,91.1931 L 151.5,90.5104 L 152,89.8188 L 152.5,89.118 L 153,88.408 L 153.5,87.6886 L 154,86.9595 L 154.5,86.2206 L 155,85.4716 L 155.5,84.7123 L 156,83.9426 L 156.5,83.1623 L 157,82.371 L 157.5,81.5686 L 158,80.7548 L 158.5,79.9294 L 159,79.0921 L 159.5,78.2427 L 160,77.381 L 160.5,76.5065 L 161,75.6191 L 161.5,74.7185 L 162,73.8044 L 162.5,72.8764 L 163,71.9343 L 163.5,70.9777 L 164,70.0063 L 164.5,69.0197 L 165,68.0177 L 165.5,66.9997 L 166,65.9654 L 166.5,64.9145 L 167,63.8465 L 167.5,62.7611 L 168,61.6577 L 168.5,60.5359 L 169,59.3953 L 169.5,58.2354 L 170,57.0557 L 170.5,55.8557 L 171,54.6349 L 171.5,53.3926 L 172,52.1284 L 172.5,50.8417 L 173,49.5318 L 173.5,48.1981 L 174,46.8399 L 174.5,45.4567 L 175,44.0476 L 175.5,42.612 L 176,41.1491 L 176.5,39.658 L 177,38.1381 L 177.5,36.5884 L 178,35.0081 L 178.5,33.3962 L 179,31.7517 L 179.5,30.0738 L 180,28.3613 L 180.5,26.6132 L 181,24.8284 L 181.5,23.0056 L 182,21.1437 L 182.5,19.2414 L 183,17.2974 L 183.5,15.3102 L 184,13.2784 L 184.5,11.2005 L 185,9.07494 L 185.5,6.90002 L 186,4.67402 L 186.5,2.3951 L 187,0.0613648 L 187.5,-2.32919 L 188,-4.77867 L 188.5,-7.28928 L 189,-9.86333 L 189.5,-12.5033 L 190,-15.2116 L 190.5,-17.9912 L 191,-20.8446 L 191.5,-23.7751 L 192,-26.7857 L 192.5,-29.8798 L 193,-33.0608 L 193.5,-36.3326 L 194,-39.6989 L 194.5,-43.1641 L 195,-46.7325 L 195.5,-50.4088 L 196,-54.198 L 196.5,-58.1053 L 197,-62.1364 L 197.5,-66.2972 L 198,-70.5941 L 198.5,-75.0339 L 199,-79.6239 L 199.5,-84.3717" style="stroke-width: 1px;opacity: 1" stroke-width="1" clip-path="url(#clip-1)" opacity="1"/><path fill="#11accd" stroke="none" d="M 57.1429,148.81 L 57.6429,148.67 L 58.1429,148.53 L 58.6429,148.389 L 59.1429,148.247 L 59.6429,148.105 L 60.1429,147.961 L 60.6429,147.817 L 61.1429,147.672 L 61.6429,147.526 L 62.1429,147.379 L 62.6429,147.231 L 63.1429,147.082 L 63.6429,146.933 L 64.1429,146.782 L 64.6429,146.631 L 65.1429,146.479 L 65.6429,146.325 L 66.1429,146.171 L 66.6429,146.016 L 67.1429,145.86 L 67.6429,145.703 L 68.1429,145.544 L 68.6429,145.385 L 69.1429,145.225 L 69.6429,145.064 L 70.1429,144.902 L 70.6429,144.739 L 71.1429,144.575 L 71.6429,144.41 L 72.1429,144.243 L 72.6429,144.076 L 73.1429,143.908 L 73.6429,143.738 L 74.1429,143.567 L 74.6429,143.396 L 75.1429,143.223 L 75.6429,143.049 L 76.1429,142.874 L 76.6429,142.698 L 77.1429,142.52 L 77.6429,142.342 L 78.1429,142.162 L 78.6429,141.981 L 79.1429,141.799 L 79.6429,141.615 L 80.1429,141.431 L 80.6429,141.245 L 81.1429,141.058 L 81.6429,140.869 L 82.1429,140.679 L 82.6429,140.488 L 83.1429,140.296 L 83.6429,140.102 L 84.1429,139.907 L 84.6429,139.711 L 85.1429,139.513 L 85.6429,139.314 L 86.1429,139.114 L 86.6429,138.912 L 87.1429,138.709 L 87.6429,138.504 L 88.1429,138.297 L 88.6429,138.09 L 89.1429,137.881 L 89.6429,137.67 L 90.1429,137.458 L 90.6429,137.244 L 91.1429,137.029 L 91.6429,136.812 L 92.1429,136.593 L 92.6429,136.373 L 93.1429,136.151 L 93.6429,135.928 L 94.1429,135.703 L 94.6429,135.476 L 95.1429,135.248 L 95.6429,135.018 L 96.1429,134.786 L 96.6429,134.552 L 97.1429,134.317 L 97.6429,134.08 L 98.1429,133.841 L 98.6429,133.6 L 99.1429,133.357 L 99.6429,133.112 L 100.143,132.866 L 100.643,132.617 L 101.143,132.367 L 101.643,132.115 L 102.143,131.86 L 102.643,131.604 L 103.143,131.346 L 103.643,131.085 L 104.143,130.823 L 104.643,130.558 L 105.143,130.291 L 105.643,130.022 L 106.143,129.751 L 106.643,129.477 L 107.143,129.202 L 107.643,128.924 L 108.143,128.643 L 108.643,128.361 L 109.143,128.076 L 109.643,127.789 L 110.143,127.499 L 110.643,127.206 L 111.143,126.912 L 111.643,126.614 L 112.143,126.315 L 112.643,126.012 L 113.143,125.707 L 113.643,125.4 L 114.143,125.089 L 114.643,124.776 L 115.143,124.46 L 115.643,124.142 L 116.143,123.82 L 116.643,123.496 L 117.143,123.168 L 117.643,122.838 L 118.143,122.505 L 118.643,122.169 L 119.143,121.83 L 119.643,121.487 L 120.143,121.142 L 120.643,120.793 L 121.143,120.441 L 121.643,120.085 L 122.143,119.727 L 122.643,119.365 L 123.143,118.999 L 123.643,118.63 L 124.143,118.258 L 124.643,117.882 L 125.143,117.502 L 125.643,117.119 L 126.143,116.731 L 126.643,116.34 L 127.143,115.946 L 127.643,115.547 L 128.143,115.144 L 128.643,114.738 L 129.143,114.327 L 129.643,113.912 L 130.143,113.493 L 130.643,113.069 L 131.143,112.641 L 131.643,112.209 L 132.143,111.772 L 132.643,111.331 L 133.143,110.885 L 133.643,110.435 L 134.143,109.979 L 134.643,109.519 L 135.143,109.054 L 135.643,108.584 L 136.143,108.109 L 136.643,107.628 L 137.143,107.143 L 137.643,106.652 L 138.143,106.155 L 138.643,105.654 L 139.143,105.146 L 139.643,104.633 L 140.143,104.114 L 140.643,103.589 L 141.143,103.058 L 141.643,102.521 L 142.143,101.978 L 142.643,101.428 L 143.143,100.872 L 143.643,100.309 L 144.143,99.7401 L 144.643,99.1641 L 145.143,98.5812 L 145.643,97.9913 L 146.143,97.3942 L 146.643,96.7898 L 147.143,96.1779 L 147.643,95.5586 L 148.143,94.9315 L 148.643,94.2966 L 149.143,93.6536 L 149.643,93.0026 L 150.143,92.3432 L 150.643,91.6754 L 151.143,90.9989 L 151.643,90.3137 L 152.143,89.6195 L 152.643,88.9161 L 153.143,88.2035 L 153.643,87.4813 L 154.143,86.7494 L 154.643,86.0076 L 155.143,85.2557 L 155.643,84.4935 L 156.143,83.7208 L 156.643,82.9373 L 157.143,82.1429 L 157.643,81.3372 L 158.143,80.5201 L 158.643,79.6914 L 159.143,78.8507 L 159.643,77.9978 L 160.143,77.1324 L 160.643,76.2543 L 161.143,75.3632 L 161.643,74.4588 L 162.143,73.5407 L 162.643,72.6087 L 163.143,71.6625 L 163.643,70.7017 L 164.143,69.726 L 164.643,68.735 L 165.143,67.7284 L 165.643,66.7059 L 166.143,65.6669 L 166.643,64.6111 L 167.143,63.5382 L 167.643,62.4477 L 168.143,61.3391 L 168.643,60.212 L 169.143,59.0659 L 169.643,57.9004 L 170.143,56.715 L 170.643,55.5091 L 171.143,54.2822 L 170.929,196.429 L 170.429,196.429 L 169.929,196.429 L 169.429,196.429 L 168.929,196.429 L 168.429,196.429 L 167.929,196.429 L 167.429,196.429 L 166.929,196.429 L 166.429,196.429 L 165.929,196.429 L 165.429,196.429 L 164.929,196.429 L 164.429,196.429 L 163.929,196.429 L 163.429,196.429 L 162.929,196.429 L 162.429,196.429 L 161.929,196.429 L 161.429,196.429 L 160.929,196.429 L 160.429,196.429 L 159.929,196.429 L 159.429,196.429 L 158.929,196.429 L 158.429,196.429 L 157.929,196.429 L 157.429,196.429 L 156.929,196.429 L 156.429,196.429 L 155.929,196.429 L 155.429,196.429 L 154.929,196.429 L 154.429,196.429 L 153.929,196.429 L 153.429,196.429 L 152.929,196.429 L 152.429,196.429 L 151.929,196.429 L 151.429,196.429 L 150.929,196.429 L 150.429,196.429 L 149.929,196.429 L 149.429,196.429 L 148.929,196.429 L 148.429,196.429 L 147.929,196.429 L 147.429,196.429 L 146.929,196.429 L 146.429,196.429 L 145.929,196.429 L 145.429,196.429 L 144.929,196.429 L 144.429,196.429 L 143.929,196.429 L 143.429,196.429 L 142.929,196.429 L 142.429,196.429 L 141.929,196.429 L 141.429,196.429 L 140.929,196.429 L 140.429,196.429 L 139.929,196.429 L 139.429,196.429 L 138.929,196.429 L 138.429,196.429 L 137.929,196.429 L 137.429,196.429 L 136.929,196.429 L 136.429,196.429 L 135.929,196.429 L 135.429,196.429 L 134.929,196.429 L 134.429,196.429 L 133.929,196.429 L 133.429,196.429 L 132.929,196.429 L 132.429,196.429 L 131.929,196.429 L 131.429,196.429 L 130.929,196.429 L 130.429,196.429 L 129.929,196.429 L 129.429,196.429 L 128.929,196.429 L 128.429,196.429 L 127.929,196.429 L 127.429,196.429 L 126.929,196.429 L 126.429,196.429 L 125.929,196.429 L 125.429,196.429 L 124.929,196.429 L 124.429,196.429 L 123.929,196.429 L 123.429,196.429 L 122.929,196.429 L 122.429,196.429 L 121.929,196.429 L 121.429,196.429 L 120.929,196.429 L 120.429,196.429 L 119.929,196.429 L 119.429,196.429 L 118.929,196.429 L 118.429,196.429 L 117.929,196.429 L 117.429,196.429 L 116.929,196.429 L 116.429,196.429 L 115.929,196.429 L 115.429,196.429 L 114.929,196.429 L 114.429,196.429 L 113.929,196.429 L 113.429,196.429 L 112.929,196.429 L 112.429,196.429 L 111.929,196.429 L 111.429,196.429 L 110.929,196.429 L 110.429,196.429 L 109.929,196.429 L 109.429,196.429 L 108.929,196.429 L 108.429,196.429 L 107.929,196.429 L 107.429,196.429 L 106.929,196.429 L 106.429,196.429 L 105.929,196.429 L 105.429,196.429 L 104.929,196.429 L 104.429,196.429 L 103.929,196.429 L 103.429,196.429 L 102.929,196.429 L 102.429,196.429 L 101.929,196.429 L 101.429,196.429 L 100.929,196.429 L 100.429,196.429 L 99.9286,196.429 L 99.4286,196.429 L 98.9286,196.429 L 98.4286,196.429 L 97.9286,196.429 L 97.4286,196.429 L 96.9286,196.429 L 96.4286,196.429 L 95.9286,196.429 L 95.4286,196.429 L 94.9286,196.429 L 94.4286,196.429 L 93.9286,196.429 L 93.4286,196.429 L 92.9286,196.429 L 92.4286,196.429 L 91.9286,196.429 L 91.4286,196.429 L 90.9286,196.429 L 90.4286,196.429 L 89.9286,196.429 L 89.4286,196.429 L 88.9286,196.429 L 88.4286,196.429 L 87.9286,196.429 L 87.4286,196.429 L 86.9286,196.429 L 86.4286,196.429 L 85.9286,196.429 L 85.4286,196.429 L 84.9286,196.429 L 84.4286,196.429 L 83.9286,196.429 L 83.4286,196.429 L 82.9286,196.429 L 82.4286,196.429 L 81.9286,196.429 L 81.4286,196.429 L 80.9286,196.429 L 80.4286,196.429 L 79.9286,196.429 L 79.4286,196.429 L 78.9286,196.429 L 78.4286,196.429 L 77.9286,196.429 L 77.4286,196.429 L 76.9286,196.429 L 76.4286,196.429 L 75.9286,196.429 L 75.4286,196.429 L 74.9286,196.429 L 74.4286,196.429 L 73.9286,196.429 L 73.4286,196.429 L 72.9286,196.429 L 72.4286,196.429 L 71.9286,196.429 L 71.4286,196.429 L 70.9286,196.429 L 70.4286,196.429 L 69.9286,196.429 L 69.4286,196.429 L 68.9286,196.429 L 68.4286,196.429 L 67.9286,196.429 L 67.4286,196.429 L 66.9286,196.429 L 66.4286,196.429 L 65.9286,196.429 L 65.4286,196.429 L 64.9286,196.429 L 64.4286,196.429 L 63.9286,196.429 L 63.4286,196.429 L 62.9286,196.429 L 62.4286,196.429 L 61.9286,196.429 L 61.4286,196.429 L 60.9286,196.429 L 60.4286,196.429 L 59.9286,196.429 L 59.4286,196.429 L 58.9286,196.429 L 58.4286,196.429 L 57.9286,196.429 L 57.4286,196.429" style="stroke-width: 1px;opacity: 1;fill-opacity: 0.2" stroke-width="1" clip-path="url(#clip-1)" opacity="1" fill-opacity="0.2"/></svg>